<?xml version="1.0" standalone="no"?>
<!DOCTYPE svg PUBLIC "-//W3C//DTD SVG 20010904//EN"
 "http://www.w3.org/TR/2001/REC-SVG-20010904/DTD/svg10.dtd">
<svg version="1.0" xmlns="http://www.w3.org/2000/svg"
 width="177.000000pt" height="106.000000pt" viewBox="0 0 177.000000 106.000000"
 preserveAspectRatio="xMidYMid meet">

<g transform="translate(0.000000,106.000000) scale(0.100000,-0.100000)"
fill="#000000" stroke="none">
<path d="M1082 910 c-162 -23 -310 -81 -547 -217 -192 -110 -409 -216 -485
-237 -53 -15 -53 -16 -11 -11 76 10 227 72 496 205 345 171 444 203 640 202
57 0 130 -7 170 -16 101 -24 220 -85 292 -150 62 -57 96 -69 107 -39 5 12 -12
35 -64 85 -77 74 -187 134 -297 162 -77 20 -219 27 -301 16z"/>
<path d="M915 750 c-153 -33 -247 -73 -405 -173 -109 -70 -204 -112 -273 -122
-51 -8 -68 -22 -46 -36 16 -11 83 -4 156 17 l52 14 62 -60 c77 -76 236 -157
384 -197 88 -23 118 -26 260 -26 140 0 172 3 256 26 53 14 131 41 173 60 67
31 82 35 131 30 117 -12 144 71 40 125 -13 6 -28 32 -38 64 -72 227 -406 351
-752 278z m339 -74 c37 -15 61 -61 54 -101 -3 -14 -1 -28 5 -32 6 -4 3 -10 -9
-15 -18 -8 -17 -8 2 -5 25 5 54 -9 54 -26 0 -9 -13 -12 -37 -10 -35 2 -35 1
-8 -5 17 -4 31 -15 33 -25 3 -15 0 -16 -23 -7 -40 15 -55 10 -18 -6 22 -9 31
-19 27 -29 -5 -11 -11 -12 -27 -4 -18 8 -18 7 3 -10 22 -18 23 -20 7 -26 -12
-5 -35 6 -74 36 -31 23 -52 44 -45 47 7 2 10 7 7 12 -3 4 5 6 17 4 13 -3 2 6
-24 20 -26 14 -54 36 -62 48 -32 45 -12 118 38 138 30 12 42 12 80 -4z m194
-68 c69 -39 178 -145 187 -181 5 -19 20 -33 51 -47 49 -21 63 -42 43 -66 -10
-12 -26 -15 -68 -12 -46 4 -66 0 -125 -27 -133 -61 -231 -80 -411 -80 -132 1
-174 5 -240 23 -102 27 -210 72 -283 116 -61 37 -142 107 -142 122 1 12 91 64
205 119 141 68 130 71 130 -43 0 -89 2 -101 30 -151 56 -101 147 -155 265
-155 128 0 223 61 275 175 30 67 37 159 16 212 -14 36 -3 35 67 -5z m-488 -48
c12 -8 10 -10 -10 -11 -23 0 -23 -1 -5 -9 15 -6 6 -9 -35 -12 l-55 -4 60 -3
60 -3 -40 -13 -40 -13 42 -1 c60 -1 86 -16 111 -64 35 -66 28 -177 -10 -177
-5 0 -6 17 -3 38 l5 37 -12 -32 c-9 -23 -17 -30 -26 -24 -11 7 -11 15 2 46 24
56 18 57 -8 2 -19 -39 -25 -45 -35 -33 -10 12 -9 21 4 43 l17 28 -26 -30 c-22
-25 -28 -27 -36 -15 -6 10 -4 21 8 35 17 20 17 20 -6 1 -17 -15 -25 -17 -34
-8 -8 8 -5 16 13 31 27 22 20 28 -11 9 -15 -9 -22 -10 -31 -1 -8 8 -3 15 20
27 17 9 31 19 31 22 0 2 -13 -2 -29 -10 -26 -14 -30 -14 -35 -1 -4 10 5 20 27
29 37 16 22 21 -18 6 -23 -9 -26 -8 -23 7 2 10 16 21 33 25 27 6 27 7 -7 5
-21 -2 -38 1 -38 5 0 17 56 57 80 58 20 0 22 2 10 10 -12 8 -10 10 10 10 14 0
32 -5 40 -10z m286 -162 c56 -44 61 -52 44 -63 -6 -4 -27 11 -48 32 -81 83
-80 96 4 31z m-42 -56 c30 -47 25 -68 -17 -74 -16 -2 -25 5 -34 27 -12 30 -12
30 -6 -9 4 -30 3 -38 -8 -34 -31 10 -39 131 -12 158 20 19 25 14 77 -68z m59
-28 c-8 -22 -19 -17 -41 19 -11 17 -30 48 -42 67 -19 31 -15 28 33 -19 32 -31
53 -59 50 -67z m-160 4 c6 -61 4 -68 -12 -68 -15 0 -17 7 -14 58 8 105 17 109
26 10z"/>
<path d="M1248 493 c6 -2 18 -2 25 0 6 3 1 5 -13 5 -14 0 -19 -2 -12 -5z"/>
<path d="M1210 456 c0 -2 7 -7 16 -10 8 -3 12 -2 9 4 -6 10 -25 14 -25 6z"/>
<path d="M1051 384 c0 -11 3 -14 6 -6 3 7 2 16 -1 19 -3 4 -6 -2 -5 -13z"/>
<path d="M1041 344 c0 -11 3 -14 6 -6 3 7 2 16 -1 19 -3 4 -6 -2 -5 -13z"/>
<path d="M1140 405 c0 -5 5 -17 10 -25 5 -8 10 -10 10 -5 0 6 -5 17 -10 25 -5
8 -10 11 -10 5z"/>
<path d="M1121 384 c0 -11 3 -14 6 -6 3 7 2 16 -1 19 -3 4 -6 -2 -5 -13z"/>
<path d="M1176 320 c3 -14 10 -29 15 -34 14 -16 10 6 -7 34 l-15 25 7 -25z"/>
<path d="M330 391 c0 -31 113 -127 203 -171 84 -42 211 -85 201 -69 -3 5 -11
9 -19 9 -7 0 -59 23 -115 51 -79 39 -119 67 -178 125 -42 41 -80 74 -84 74 -5
0 -8 -9 -8 -19z"/>
</g>
</svg>
